PathFileType        4      (X/Y/Z)      C:\Users\pc\Desktop\IMUTRC\Sujet_04\Sujet_04_velo_80.trc         
DataRate	CameraRate	NumFrames	NumMarkers	Units	OrigDataRate	OrigDataStartFrame	OrigNumFrames
60.0	60.0	4	64	mm	60.0	351	934
Frame#	Time	pHipOrigin			pRightASI			pLeftASI			pRightCSI			pLeftCSI			pRightIschialTub			pLeftIschialTub			pSacrum			pL5SpinalProcess			pL3SpinalProcess			pT12SpinalProcess			pIJ			pT4SpinalProcess			pT8SpinalProcess			pPX			pC7SpinalProcess			pTopOfHead			pRightAuricularis			pLeftAuricularis			pBackOfHead			pRightAcromion			pLeftAcromion			pRightArmLatEpicondyle			pRightArmMedEpicondyle			pLeftArmLatEpicondyle			pLeftArmMedEpicondyle			pRightUlnarStyloid			pRightRadialStyloid			pRightOlecranon			pLeftUlnarStyloid			pLeftRadialStyloid			pLeftOlecranon			pRightTopOfHand			pRightPinky			pRightBallHand			pLeftTopOfHand			pLeftPinky			pLeftBallHand			pRightGreaterTrochanter			pRightKneeLatEpicondyle			pRightKneeMedEpicondyle			pRightPatella			pLeftGreaterTrochanter			pLeftKneeLatEpicondyle			pLeftKneeMedEpicondyle			pLeftPatella			pRightTibialTub			pRightLatMalleolus			pRightMedMalleolus			pLeftTibialTub			pLeftLatMalleolus			pLeftMedMalleolus			pRightHeelFoot			pRightFirstMetatarsal			pRightFifthMetatarsal			pRightPivotFoot			pRightHeelCenter			pRightToe			pLeftHeelFoot			pLeftFirstMetatarsal			pLeftFifthMetatarsal			pLeftPivotFoot			pLeftHeelCenter			pLeftToe			
		X1	Y1	Z1	X2	Y2	Z2	X3	Y3	Z3	X4	Y4	Z4	X5	Y5	Z5	X6	Y6	Z6	X7	Y7	Z7	X8	Y8	Z8	X9	Y9	Z9	X10	Y10	Z10	X11	Y11	Z11	X12	Y12	Z12	X13	Y13	Z13	X14	Y14	Z14	X15	Y15	Z15	X16	Y16	Z16	X17	Y17	Z17	X18	Y18	Z18	X19	Y19	Z19	X20	Y20	Z20	X21	Y21	Z21	X22	Y22	Z22	X23	Y23	Z23	X24	Y24	Z24	X25	Y25	Z25	X26	Y26	Z26	X27	Y27	Z27	X28	Y28	Z28	X29	Y29	Z29	X30	Y30	Z30	X31	Y31	Z31	X32	Y32	Z32	X33	Y33	Z33	X34	Y34	Z34	X35	Y35	Z35	X36	Y36	Z36	X37	Y37	Z37	X38	Y38	Z38	X39	Y39	Z39	X40	Y40	Z40	X41	Y41	Z41	X42	Y42	Z42	X43	Y43	Z43	X44	Y44	Z44	X45	Y45	Z45	X46	Y46	Z46	X47	Y47	Z47	X48	Y48	Z48	X49	Y49	Z49	X50	Y50	Z50	X51	Y51	Z51	X52	Y52	Z52	X53	Y53	Z53	X54	Y54	Z54	X55	Y55	Z55	X56	Y56	Z56	X57	Y57	Z57	X58	Y58	Z58	X59	Y59	Z59	X60	Y60	Z60	X61	Y61	Z61	X62	Y62	Z62	X63	Y63	Z63	X64	Y64	Z64	
351	5.833	4.919907857114186E-14	1249.99598	5.863317863948313E-14	72.58000987542789	1327.96901	164.09999455034762	109.61829702124643	1351.20485	-126.53830204097014	43.221219510423744	1410.39268	139.99208085959788	73.55576859298782	1429.40908	-97.93821670068596	-78.05898313077131	1197.80203	46.71138535448242	-62.89171180342734	1207.28133	-72.2537672558817	-65.74359487788763	1287.16178	-5.423604117962416	-3.124813185207311	1384.4402	10.393719671953614	68.25042341500142	1481.77643	28.823358319887664	137.55117807157123	1567.72593	46.57917351704538	402.5081001632084	1573.39039	85.47337038309638	296.25857213228085	1689.10721	81.59334765938154	217.63802358863012	1641.53731	65.3196762799182	297.91294612081106	1503.91406	63.152705959666335	345.80299117903724	1716.85151	91.63071739255375	588.2920714788987	1777.77335	135.04154557318418	495.07367239504003	1727.71802	185.26787678872645	516.2773730632707	1740.83876	50.296835620319655	480.5267536524764	1781.93499	118.4745447141066	316.1101185358511	1654.36905	274.3943832459402	372.1657662424178	1702.45916	-97.6194187711227	332.3328824824104	1336.8703	285.4551100959177	305.3428196460363	1330.33883	224.4247058627572	414.4000704268793	1382.24378	-100.16054735836045	372.6070743360874	1374.32509	-48.26596028064347	437.50553611535383	1110.23411	203.16559125749262	485.032481266571	1133.70116	211.87769483123952	295.95920525000395	1323.11375	252.8972589421067	458.20711333483894	1138.84541	-3.442065464419585	508.31289611408624	1155.60759	6.275182304582984	369.8609397664233	1371.20386	-81.1229426008961	653.6623088594941	1051.27749	294.3259741275913	560.3247566298865	1035.49792	248.37383881150674	500.1878291121973	1083.64583	209.34704555485405	675.0528373806005	1035.20892	-16.759027321863073	571.1879435992379	1041.04678	-0.5321661838106024	513.0319282821089	1103.12463	14.237063168635558	1.0468886914693485	1244.50493	179.83229844930355	393.37507311284054	1077.28776	266.30229992001324	412.66829235726675	1063.87802	185.52531258316708	419.60763357850374	1114.33795	219.6927785555514	22.152925517119584	1230.22818	-175.83326561614763	226.85540970458092	846.25873	-171.34005438909293	235.24326789850147	844.35131	-87.6079298925278	271.16975861862767	870.18818	-130.12818232304716	436.4140513304163	1021.04777	221.73753316466673	194.00825548272542	684.99502	161.43073461287	207.51799943604777	693.37611	97.05101556884907	273.2818382667585	796.0878	-133.63586213539492	62.90767692454944	437.37721	-182.5655502595205	66.94282516344796	432.11736	-116.60982515423404	135.96403830195254	615.34529	115.36621877542008	308.62708791787105	569.50941	93.09638952850918	297.64754223240607	563.49814	176.85722938964827	326.2172398888057	559.91451	136.36011731647062	177.23142464500378	605.69259	120.12541441646583	412.6520700036675	534.30884	145.85047028764504	-9.872132999898042	369.4037	-146.0183756063288	149.04569445332055	305.59182	-90.4311052628586	152.8679489156193	296.45933	-174.44887784454477	172.95856415944328	291.77748	-129.284264014278	30.117785786900214	354.95354	-142.60176484048498	255.98291891565614	255.9989	-121.61030525993759	
352	5.85	4.919907857114186E-14	1249.99598	5.863317863948313E-14	73.51137417990805	1327.8534	163.77120235390706	109.0538694907997	1351.14705	-127.12103974094657	44.056911260183035	1410.33487	139.81903306393366	73.17710668174048	1429.40908	-98.299567556601	-77.85031287767681	1197.80203	47.1399105526604	-63.32736124657771	1207.33913	-71.96366651013504	-65.73494639438177	1287.21958	-5.0535983506654	-2.9619445394585613	1384.4402	10.407961734022308	68.43465070734682	1481.71863	28.593307671431546	137.83109077438968	1567.66813	46.193393788701776	402.91931430605405	1573.39039	84.52468736283956	296.6484135402094	1689.04941	80.88895611708115	217.93930902636578	1641.42171	64.68960507361811	298.30991820158806	1503.85626	62.366891585158214	346.20708750478667	1716.79371	90.76347252539352	588.5847020052523	1777.94675	134.0414609391427	495.4034624731097	1727.77582	184.31207718394165	516.6885872061164	1740.89656	49.348152600062775	480.8193906067061	1781.99279	117.47446774050951	316.7956594633969	1654.31125	273.5927884825095	372.51846095438253	1702.45916	-98.36808002179096	333.0484522888237	1336.8703	284.7792231939513	306.0141120836372	1330.22323	223.7859720846307	414.7614136223499	1382.12818	-100.53920284173165	373.01269490037026	1374.32509	-48.68176888785456	438.0511206914903	1110.06071	202.5568863582336	485.61521896654745	1133.52776	211.3132673007928	296.63049768760493	1323.05595	252.25852516398027	458.7012886367464	1138.78761	-3.932180319310447	508.8070790764382	1155.54979	5.785061021815949	370.2222829618939	1371.14606	-81.50159808426733	654.1564841614016	1051.10409	293.8358592727004	560.7817800405223	1035.32452	247.8394324994831	500.7334136883338	1083.47243	208.73834065559504	675.5169914640849	1035.15112	-17.374856466094457	571.6520976827222	1040.98898	-1.1479953280419863	513.4889581206209	1103.06683	13.702664517056377	2.1569007980526322	1244.10032	179.806331250021	394.28859234463965	1074.80234	262.8949012150723	412.9817551733127	1061.6238	181.9423350693866	420.4025691938108	1111.91033	216.23397823682575	21.338606502277457	1230.11257	-175.9045092984399	229.88109036076315	848.22395	-171.69075210523113	238.9346486462902	846.66333	-88.06450106206727	274.31248456444797	872.7314	-130.87891591791816	439.15774693957735	1019.89176	218.98258394301655	209.8085452460739	673.3193	167.94149199184875	222.31820456535468	680.89118	103.26914242147413	274.0116642235609	796.897	-134.47461645054165	46.73846105178545	448.76393	-184.3904422631079	50.77360929068397	442.98387	-118.43471715782144	154.09174230995782	600.49053	122.94218453526545	328.29027432569455	561.47512	99.53483765563472	318.24361718324315	555.75286	183.41832158028245	346.5832718516311	552.97843	142.73697578688325	195.757632632764	592.57185	127.36699563387617	434.13369999119453	530.8986	151.66849357360542	-27.684221303970517	382.46663	-147.8228927566281	129.54491036182884	314.26191	-92.62952550067135	132.9671301779631	305.30282	-176.7643574603161	152.97632258957938	299.98516	-131.6068743028978	11.86850971282334	366.91827	-144.56761873755516	235.03775226346664	262.01016	-124.18126104565437	
353	5.867	4.919907857114186E-14	1249.99598	5.863317863948313E-14	74.56845277372872	1327.5644	163.41238893904347	108.11231837595969	1351.49385	-127.61369080432053	44.91549355551689	1410.04587	139.85312238981774	72.36279409477447	1429.64028	-98.37080357844886	-77.51592833524177	1197.68643	47.538414532415324	-63.77014259514491	1207.45473	-71.59212884386012	-65.82196280515231	1287.16178	-4.52785461046814	-2.983318506944082	1384.3824	10.652267300299311	68.4718102590628	1481.71863	28.63759270068826	137.88961663314674	1567.66813	45.993379679557584	403.1376450126041	1573.4482	83.43605565161786	296.7496848688008	1689.10721	80.200359052024	218.05636840432433	1641.47951	64.28957042745363	298.4183073472758	1503.91406	61.59685636700446	346.3226085558912	1716.85151	89.91200038671153	588.6915669124066	1778.23575	132.81998946103977	495.62891099675596	1728.00703	183.14200731962345	516.7883278682982	1741.06996	48.20811161461205	480.9634086377003	1782.1662	116.29727363121881	317.42979877715794	1654.48465	272.9097773355707	372.3754343771414	1702.57476	-99.07805748220974	333.7126204814523	1336.9859	284.221919908477	306.4197326479201	1330.33883	223.37016347741962	414.967027737933	1382.35938	-101.01354373557592	373.2554557119172	1374.4985	-49.11184007333094	438.5452959933978	1110.17631	202.06677150334275	486.0279714362471	1133.58556	210.81602177305342	297.16895035832465	1323.17156	251.7312571852495	459.151194230286	1139.07661	-4.385148478237511	509.26410248707396	1155.83879	5.250654709792286	370.42789707747704	1371.31946	-81.9759389781116	654.5992655099687	1051.21969	293.46432160642553	561.2688387579018	1035.38232	247.4307417093683	501.1833192818734	1083.58803	208.28537249666795	675.96688939718	1035.44012	-17.82781819714546	572.1019956158174	1041.27798	-1.6009570590929911	513.9388560537161	1103.35584	13.249702786005372	3.429773889940222	1243.05991	179.7946125406832	394.06766416955077	1068.38647	258.8548874349037	412.0493252992716	1055.67033	177.59391160651003	420.29310039024165	1105.61006	212.3267965630941	21.01288453166883	1230.45938	-175.93300627832951	236.6811064959198	852.55899	-172.0394604859872	245.93467889059102	851.22958	-88.35468358406631	280.6681951125039	877.87566	-131.30752289234852	440.6855646491982	1014.9209	215.5878954011664	223.88298609816326	659.10035	174.0140689145018	235.47399770393076	665.80522	109.05622072319035	278.07863665676507	800.01824	-135.47270408875664	33.52367572503532	463.84989	-185.7517206284358	37.85452471611944	457.43402	-119.89321283260031	170.30071643554498	583.67056	129.93999297117924	345.4931990615355	550.60861	105.01954962916548	336.5051524118827	545.05975	188.9956499710226	364.4961804757669	543.03673	148.07866884361732	212.20224209235732	577.25469	134.01617746528623	452.8878798553319	524.02033	156.30426318906117	-42.80042669037482	400.09582	-149.0223015904047	112.16135491637878	326.28444	-94.64271933194127	115.01354719562741	317.49875	-178.8274222389611	134.94843335956392	311.31408	-133.75849381916737	-3.7663075083613933	383.16024	-145.93548090263056	215.60975018112126	270.56465	-126.74256280579174	
354	5.883	4.919907857114186E-14	1249.99598	5.863317863948313E-14	75.7441162166098	1327.102	163.104963049644	106.92646812271875	1352.12966	-128.12770817473557	45.759841449226506	1409.58347	140.05007393357445	71.28993511203109	1430.10268	-98.30055901035401	-77.01868280750243	1197.39743	47.951167002115035	-64.250077067552	1207.62814	-71.2648685463975	-65.87896442537591	1287.10397	-3.876404241374761	-3.10749446943061	1384.3824	11.13372601123987	68.36900703149347	1481.71863	28.874759933672337	137.80818614049457	1567.72593	45.986255434585175	403.16307942710614	1573.6794	82.20745992854256	296.71812532352374	1689.22282	79.62320727016598	218.00342846368565	1641.53731	63.95671655142817	298.4452736607558	1504.08746	60.819690476002236	346.312420512963	1716.96711	89.09057121521752	588.7383740618259	1778.58256	131.347102260008	495.8243306415348	1728.29603	181.84622959384072	516.7023029112806	1741.30117	46.84668378509994	480.9516899283625	1782.3974	115.02440053933128	317.90107067773863	1654.94705	272.2125100382427	371.95096319810386	1702.80596	-99.85368504635798	334.36966442910847	1337.2749	283.74604711565485	306.61109827355847	1330.57003	223.0586835688797	414.89118316339926	1382.70618	-101.55353596571797	373.3725074294313	1374.9031	-49.51186829161935	438.9066468493129	1110.40751	201.68810959209543	486.43359200053	1133.81676	210.40021316584236	297.5674543380796	1323.40276	251.39687264281446	459.5196693311735	1139.53902	-4.845240882137006	509.63970183293384	1156.4168	4.7091318132407025	370.463518302339	1371.60847	-82.38309144137239	654.9977618292794	1051.50869	293.1299434918666	561.6673350772123	1035.67132	247.09636359480933	501.58181560118385	1083.81923	207.950994382109	676.3582691319625	1035.90253	-18.08077224692829	572.5376527194122	1041.74039	-1.8910642327157348	514.3444842784434	1103.87604	12.833887750918166	4.791195291576258	1241.44149	179.70857992322124	392.51939749083385	1058.50256	254.04231631641886	409.73814121949727	1046.36444	172.59151318924083	419.1748972365567	1095.72616	207.75699268403218	20.975731407828945	1231.15298	-175.97728364714177	246.50833395366823	859.03266	-172.28742266248793	255.76190634833947	857.87665	-88.60264576056701	289.83684029574215	885.50534	-131.53104976854456	440.87179536524627	1006.48202	211.58351050630426	236.40157735759075	642.45378	179.5812846106901	247.1482487300931	648.17604	114.42647844774582	284.9356467517008	805.33589	-136.47285641073	23.100459958994747	482.46169	-186.66363384544903	27.689848917980143	475.29441	-120.94661430000066	184.7909723227215	564.65416	136.4181981185596	360.7102106796826	536.96766	109.75613313680847	352.77365027785606	531.59221	193.90628038852725	380.42316955433284	530.14719	152.67222577401915	227.01668805116458	559.5677	140.07144976048312	469.34467312111167	514.02082	160.00054637343527	-55.44365900913749	421.48205	-149.8822868367289	96.68786801408876	341.4282	-96.44777692746548	98.80005395405112	332.81591	-180.6151611187086	118.70491123912016	325.64863	-135.6719405603793	-17.128173431493117	403.04365	-147.02243891113454	197.7289415474874	281.66237	-129.1685026788853	
